#!OML:ASF C:\Vicon Data\Big\jianyuan-13\jianyuan\Session 1\Capture.male.ASF
:FULLY-SPECIFIED
:DEGREES
237
root -6.893438 17.394110 0.733751 6.488358 7.110645 4.439064
lowerback -11.474807 -3.822657 -6.898511 
upperback 0.496861 -4.154467 0.161039 
thorax 7.491304 -2.292561 3.296744 
lowerneck 1.893344 0.967528 3.703585 
upperneck -1.959999 1.250449 -6.471118 
head -0.877534 0.672984 -2.718185 
rclavicle 0.000000 0.000000 
rhumerus -53.844986 -17.333869 -75.032083 
rradius 32.051875 
rwrist 25.412106 
rhand -17.005175 -17.686099 
rfingers 0.000000 
rthumb 9.230362 -47.464081 
lclavicle 0.000000 0.000000 
lhumerus -13.845727 -1.969848 92.138383 
lradius 53.294956 
lwrist -22.704453 
lhand -18.511374 2.205969 
lfingers 0.000000 
lthumb 7.776769 32.042979 
rfemur -47.773333 1.018836 9.453664 
rtibia 27.000304 
rfoot -8.621029 -8.643491 
rtoes -39.273606 
lfemur 6.287820 -4.377108 -28.886960 
ltibia 14.845423 
lfoot -18.316238 -1.589112 
ltoes -30.962867 
238
root -6.898750 17.374159 0.820773 6.546972 7.174033 4.444149
lowerback -11.516411 -3.847240 -6.888705 
upperback 0.414402 -4.189029 0.180377 
thorax 7.430688 -2.305727 3.305810 
lowerneck 2.052475 1.003070 3.603365 
upperneck -2.093348 1.293069 -6.457015 
head -0.945738 0.698629 -2.698561 
rclavicle 0.000000 0.000000 
rhumerus -53.927066 -17.339415 -74.999849 
rradius 32.019958 
rwrist 25.376692 
rhand -17.070191 -17.650201 
rfingers 0.000000 
rthumb 9.167588 -47.430962 
lclavicle 0.000000 0.000000 
lhumerus -14.025797 -2.159833 92.175112 
lradius 53.588086 
lwrist -22.811119 
lhand -18.544207 2.148040 
lfingers 0.000000 
lthumb 7.745119 31.986187 
rfemur -47.432357 1.507787 9.185644 
rtibia 26.281053 
rfoot -9.032425 -9.205846 
rtoes -39.582636 
lfemur 6.688624 -4.407456 -28.843278 
ltibia 14.594738 
lfoot -18.316621 -1.723589 
ltoes -30.465429 
239
root -6.907978 17.351279 0.909789 6.562942 7.251552 4.401130
lowerback -11.567714 -3.849755 -6.888391 
upperback 0.410961 -4.191574 0.224175 
thorax 7.459823 -2.308512 3.349014 
lowerneck 2.067531 0.994659 3.676833 
upperneck -2.226154 1.273541 -6.659548 
head -0.991157 0.692248 -2.782041 
rclavicle 0.000000 0.000000 
rhumerus -53.909908 -17.255259 -75.069803 
rradius 32.065549 
rwrist 25.419025 
rhand -17.015723 -17.862284 
rfingers 0.000000 
rthumb 9.220137 -47.640654 
lclavicle 0.000000 0.000000 
lhumerus -14.030662 -2.379012 92.233747 
lradius 53.830818 
lwrist -22.688600 
lhand -18.559198 2.118360 
lfingers 0.000000 
lthumb 7.730626 31.957051 
rfemur -47.099923 1.837971 9.116535 
rtibia 25.646223 
rfoot -9.211805 -9.547696 
rtoes -39.577344 
lfemur 7.105844 -4.367271 -28.707922 
ltibia 14.376199 
lfoot -18.260292 -1.942392 
ltoes -29.994288 
240
root -6.912524 17.330436 0.997582 6.660729 7.354469 4.461182
lowerback -11.689615 -3.887615 -6.940631 
upperback 0.399621 -4.225679 0.231533 
thorax 7.525436 -2.328240 3.372726 
lowerneck 2.053550 1.008160 3.600905 
upperneck -2.326808 1.285037 -6.632547 
head -1.020353 0.699023 -2.759948 
rclavicle 0.000000 0.000000 
rhumerus -53.852576 -17.345643 -75.027006 
rradius 32.064583 
rwrist 25.429737 
rhand -16.968046 -17.800263 
rfingers 0.000000 
rthumb 9.266179 -47.576676 
lclavicle 0.000000 0.000000 
lhumerus -14.046920 -2.590303 92.229574 
lradius 54.121756 
lwrist -22.634364 
lhand -18.538917 2.134050 
lfingers 0.000000 
lthumb 7.750218 31.972064 
rfemur -46.831258 2.126308 8.887962 
rtibia 25.090309 
rfoot -9.368233 -9.820877 
rtoes -39.258189 
lfemur 7.407722 -4.446187 -28.720196 
ltibia 14.258003 
lfoot -18.296427 -2.054645 
ltoes -29.840131 
241
root -6.916871 17.310692 1.086374 6.707248 7.463019 4.510509
lowerback -11.681326 -3.938276 -7.040830 
upperback 0.329666 -4.287506 0.307063 
thorax 7.466632 -2.360614 3.499862 
lowerneck 2.165625 1.045475 3.413811 
upperneck -2.460664 1.324903 -6.637476 
head -1.081000 0.723914 -2.730271 
rclavicle 0.000000 0.000000 
rhumerus -53.855807 -17.268746 -74.895952 
rradius 32.006787 
rwrist 25.533364 
rhand -17.113942 -17.767749 
rfingers 0.000000 
rthumb 9.125423 -47.550314 
lclavicle 0.000000 0.000000 
lhumerus -14.225099 -2.711705 92.360735 
lradius 54.430854 
lwrist -22.636880 
lhand -18.630486 2.172353 
lfingers 0.000000 
lthumb 7.661853 32.013551 
rfemur -46.519818 2.345129 8.711049 
rtibia 24.611094 
rfoot -9.571759 -10.003874 
rtoes -38.766933 
lfemur 7.735969 -4.475271 -28.705741 
ltibia 14.212524 
lfoot -18.339478 -2.191028 
ltoes -30.002108 
